<?xml version="1.0" encoding="UTF-8"?>
<svg version="1.1" xmlns="http://www.w3.org/2000/svg" width="512" height="512">
<path d="M0 0 C84.48 0 168.96 0 256 0 C256 14.19 256 28.38 256 43 C249.07 43 242.14 43 235 43 C234.67 44.32 234.34 45.64 234 47 C232.51760197 48.85614419 232.51760197 48.85614419 230.56886292 50.80307388 C229.8290087 51.54951794 229.08915449 52.295962 228.32688046 53.06502557 C227.09495134 54.28487008 227.09495134 54.28487008 225.83813477 55.52935791 C224.53934183 56.83305411 224.53934183 56.83305411 223.21431065 58.16308761 C220.80674169 60.57669028 218.39260283 62.98336419 215.9754796 65.38737631 C213.37154662 67.98042795 210.77626014 70.58210802 208.17990112 73.18273926 C203.09178622 78.276493 197.99572444 83.36222469 192.89699817 88.44535425 C186.96487397 94.35996371 181.0407925 100.2826012 175.11709177 106.20564505 C164.55189657 116.7691515 153.97965048 127.32557273 143.40332031 137.87792969 C133.12963936 148.12834017 122.86052663 158.38329711 112.59667969 168.64355469 C111.96426475 169.27574686 111.33184982 169.90793902 110.68027079 170.55928853 C109.40634809 171.83276865 108.13242566 173.10624905 106.85850352 174.37972973 C106.23015662 175.00785707 105.60180972 175.63598441 104.954422 176.2831459 C104.32770955 176.90964236 103.70099711 177.53613882 103.05529338 178.18162002 C93.28762974 187.94558711 83.51613666 197.70572124 73.74411303 207.46532448 C70.19662552 211.00837022 66.64964129 214.5519189 63.10300183 218.09581354 C57.47957895 223.71481253 51.85450279 229.33214523 46.22599244 234.94604853 C43.65253551 237.51287895 41.07987284 240.08049208 38.50933456 242.65024567 C35.72956543 245.42908864 32.94594407 248.20405113 30.16186523 250.97857666 C29.34057916 251.80072922 28.51929308 252.62288178 27.67311954 253.46994805 C26.93326533 254.20596112 26.19341112 254.94197419 25.43113708 255.70029068 C24.7880532 256.34212807 24.14496931 256.98396546 23.48239803 257.64525247 C22 259 22 259 21 259 C15.33235575 239.04012403 11.81034054 213.6624835 22.3260498 194.59563637 C39.24378844 167.6623615 65.9875855 145.78098826 89.14346409 124.39088607 C98.51863211 115.71829418 107.71020392 106.86040813 116.89391613 97.98602033 C135.73807949 79.78436978 154.79154123 61.81625015 174 44 C153.15305491 40.34031944 126.84365425 36.18268195 108.32700062 49.06294727 C101.96722943 53.77121096 96.25082155 59.17055562 90.6875 64.78125 C90.17147343 65.30158939 89.65544685 65.82192879 89.12378311 66.35803604 C82.75711854 72.82596248 76.65795539 79.5199202 70.63972378 86.31130123 C65.43799337 92.16891517 60.06488333 97.8580985 54.67480659 103.54197407 C45.48863844 113.23266123 36.42621311 123.0217846 27.52006531 132.97117615 C26.44254753 134.1701931 26.44254753 134.1701931 25.34326172 135.39343262 C24.7176535 136.09399529 24.09204529 136.79455795 23.44747925 137.51634979 C22.73097702 138.25075665 22.73097702 138.25075665 22 139 C21.67 139 21.34 139 21 139 C21 107.32 21 75.64 21 43 C14.07 43 7.14 43 0 43 C0 28.81 0 14.62 0 0 Z " fill="#000000" transform="translate(128,85)"/>
<path d="M0 0 C4.84939562 20.15677921 8.79428301 46.55697458 -2.44921875 65.39130402 C-17.18509702 87.86337147 -39.09499391 106.20137474 -58.79043961 124.18406284 C-66.89432046 131.59537474 -74.8165411 139.19031913 -82.73200607 146.80174601 C-98.96723168 162.40569616 -115.40658307 177.77810663 -132 193 C-96.13529446 198.142587 -96.13529446 198.142587 -63.48486328 186.15625 C-53.77585075 178.18585809 -45.48615649 168.69680207 -37.3626709 159.15997314 C-33.46658394 154.65444415 -29.39840981 150.3098553 -25.34179688 145.94921875 C-18.85460719 138.94855447 -12.46480703 131.87563319 -6.24833679 124.63267517 C-4.87276734 123.05222788 -3.44179805 121.52027082 -2 120 C-1.34 120 -0.68 120 0 120 C0 144.42 0 168.84 0 194 C6.93 194 13.86 194 21 194 C21 208.19 21 222.38 21 237 C-63.48 237 -147.96 237 -235 237 C-235 222.81 -235 208.62 -235 194 C-229.34987793 194.70777588 -223.69975586 195.41555176 -217.87841797 196.14477539 C-199.62442738 196.60420889 -188.68147922 190.25073235 -175.60112786 177.91278064 C-168.08248693 170.61779245 -160.7647391 163.15505717 -153.56814695 155.54259669 C-148.3827743 150.06599831 -143.08301491 144.7057314 -137.77522253 139.3481418 C-128.31681067 129.79526592 -118.94757899 120.15984942 -109.63378906 110.46606445 C-100.60396702 101.06824638 -91.53569515 91.7104254 -82.41210938 82.40356445 C-81.84725897 81.82733703 -81.28240857 81.25110961 -80.70044149 80.65742075 C-77.3036522 77.19288984 -73.9053776 73.72981851 -70.5067319 70.26710884 C-65.56642247 65.23302833 -60.62898107 60.19613742 -55.69308472 55.1577301 C-55.16247448 54.61615898 -54.63186424 54.07458787 -54.0851749 53.5166055 C-46.74179626 46.01968102 -39.42402492 38.49857297 -32.12929001 30.95431279 C-30.64861047 29.42312281 -29.16734476 27.89250224 -27.68589664 26.3620559 C-23.13495226 21.65989216 -18.58913756 16.95293883 -14.05253601 12.23692322 C-12.46802771 10.59784139 -10.88331866 8.9589536 -9.29837036 7.32029724 C-8.58052781 6.57002634 -7.86268526 5.81975544 -7.12308991 5.04674906 C-6.47148042 4.37507041 -5.81987093 3.70339176 -5.1485157 3.01135921 C-4.58466986 2.4256131 -4.02082402 1.83986698 -3.43989193 1.23637098 C-2 0 -2 0 0 0 Z " fill="#000000" transform="translate(363,190)"/>
<path d="M0 0 C64.68 0 129.36 0 196 0 C192.4068692 10.7793924 186.26092147 19.3708535 179 28 C177.8553125 29.5159375 177.8553125 29.5159375 176.6875 31.0625 C159.60959149 49.72905116 134.12400408 62.4705352 108.80395508 64.22094727 C77.22279137 65.30979348 51.47489259 58.65337427 27 38 C26.11441406 37.33291016 26.11441406 37.33291016 25.2109375 36.65234375 C14.59431455 28.42571886 3.27099399 13.08397597 0 0 Z " fill="#000000" transform="translate(158,448)"/>
<path d="M0 0 C1.13953125 0.36222656 2.2790625 0.72445313 3.453125 1.09765625 C16.83598107 5.8657028 28.35044365 12.62474954 39 22 C40.03125 22.78375 41.0625 23.5675 42.125 24.375 C52.02005337 33.40961395 60.40847675 45.81469934 66 58 C66 58.66 66 59.32 66 60 C1.32 60 -63.36 60 -130 60 C-126.4068692 49.2206076 -120.26092147 40.6291465 -113 32 C-112.236875 30.989375 -111.47375 29.97875 -110.6875 28.9375 C-106.55555125 24.42118393 -101.82891386 20.74487198 -97 17 C-95.84177734 16.08347656 -95.84177734 16.08347656 -94.66015625 15.1484375 C-68.37332446 -4.53298527 -31.07887594 -9.90130681 0 0 Z " fill="#000000" transform="translate(288,4)"/>
</svg>
